# xmcd
#
# Track frame offsets:
# 150
# 16925
# 33961
# 49249
# 63936
# 76399
# 91534
# 98835
# 111361
# 126244
#
# Disc length: 2021 seconds
#
# Revision: 0
# Processed by: cddbd v1.5.1PL0 Copyright (c) Steve Scherf et al.
# Submitted via: Axialis_AX_CDPlayer 2.6
#
DISCID=7407e30a
DTITLE=Wade Hayes - Highways and Heartaches
DYEAR=1900
DGENRE=
TTITLE0=Up North (Down South, Back East, Out West)
TTITLE1=Life After Lovin' You
TTITLE2=Goodbye Is The Wrong Way To Go
TTITLE3=What's It Gonna Take
TTITLE4=She Used To Say That To Me
TTITLE5=Up And Down
TTITLE6=You Just Keep On
TTITLE7=That's What Honky Tonks Are For
TTITLE8=You Were, You Are, You'll Always Be
TTITLE9=I'm Lonesome Too
EXTD=
EXTT0=
EXTT1=
EXTT2=
EXTT3=
EXTT4=
EXTT5=
EXTT6=
EXTT7=
EXTT8=
EXTT9=
PLAYORDER=
